<?xml version="1.0" encoding="iso-8859-1"?>
<!-- Generator: Adobe Illustrator 19.0.0, SVG Export Plug-In . SVG Version: 6.00 Build 0)  -->
<svg version="1.1" id="Capa_1" xmlns="http://www.w3.org/2000/svg" xmlns:xlink="http://www.w3.org/1999/xlink" x="0px" y="0px"
	 viewBox="0 0 195.639 195.639" style="enable-background:new 0 0 195.639 195.639;" xml:space="preserve">
<g>
	<g>
		<path d="M140.074,83.147c-6.262-5.114-14.408-7.817-23.561-7.817c-2.081,0-4.226,0.141-6.406,0.415
			c-1.443-6.771-4.145-12.974-6.984-19.485c-5.834-13.367-14.315-24.8-24.525-33.06c-10.216-8.266-21.22-12.635-31.822-12.635
			c-4.931,0-9.652,0.969-14.033,2.882c-11.815,5.162-19.97,16.559-22.96,32.091c-2.901,15.07-0.583,32.341,6.531,48.632
			c6.706,15.319,17.428,28.571,29.685,36.788c-8.723,23.075-5.398,44.994,8.891,56.652c6.438,5.252,14.707,8.029,23.911,8.029
			c18.913,0,40.136-11.623,55.386-30.33c11.236-13.773,18.116-29.783,19.372-45.081C154.851,104.468,150.062,91.299,140.074,83.147z
			 M22.499,91.466C9.118,60.821,14.927,28.597,35.445,19.633c3.523-1.538,7.335-2.318,11.331-2.318
			c18.832,0,39.458,17.125,50.16,41.644c2.78,6.375,5.237,12.006,6.538,18.018c-7.547,1.844-15.042,5.149-21.958,9.683
			c-2.151-3.673-4.789-7.267-8.256-11.274c-6.006-6.946-10.9-11.911-14.832-15.901c-11.021-11.181-12.714-12.9-9.369-27.095
			c0.296-1.255-0.15-2.569-1.147-3.386c-0.997-0.817-2.373-0.993-3.546-0.456c-0.393,0.181-9.648,4.547-11.503,15.731
			c-2.195,13.243,6.92,29.668,27.094,48.817c2.154,2.307,3.946,4.542,5.618,7.023c-1.625,1.662-3.252,3.431-4.786,5.324
			c-4.828,5.91-8.887,12.353-12.101,19.176C37.925,117.062,28.504,105.184,22.499,91.466z M42.182,49.757
			c1.898,4.787,5.694,8.637,11.438,14.467c3.863,3.92,8.672,8.797,14.534,15.578c3.362,3.885,5.857,7.314,7.854,10.817
			c-1.824,1.434-3.659,3.003-5.529,4.728c-1.694-2.413-3.517-4.644-5.664-6.936c-0.045-0.048-0.092-0.095-0.14-0.142
			C41.721,66.5,38.317,52.994,39.505,45.497c0.259-1.638,0.749-3.065,1.359-4.297C40.756,44.259,41.12,47.081,42.182,49.757z
			 M128.954,161.044c-14.003,17.177-33.22,27.847-50.155,27.847c-7.631,0-14.424-2.252-19.646-6.51
			c-12.51-10.206-14.729-30.438-5.763-51.737c3.397-7.752,7.276-14.24,11.869-19.839c2.288-2.827,4.253-5.062,6.104-6.938
			c0.227-0.225,0.454-0.453,0.688-0.682c0.038-0.037,0.076-0.076,0.114-0.113c0.318-0.315,0.645-0.633,0.978-0.959
			c3.182-3.086,6.212-5.659,9.238-7.853c8.165-5.693,17.494-9.832,25.615-11.359L108,82.9c2.924-0.543,5.789-0.819,8.514-0.819
			c7.686,0,14.177,2.118,19.292,6.296C153.161,102.54,150.089,135.139,128.954,161.044z"/>
	</g>
</g>
<g>
	<g>
		<path d="M138.893,97.833c-0.223-0.121-5.542-2.957-13.162-2.957c-7.808,0-15.084,2.848-21.623,8.462
			c-6.57,5.628-12.329,14.249-17.109,25.614c-2.13,5.025-3.82,9.73-5.318,14.806c-8.332,23.381-21.456,24.533-21.968,24.569
			c-1.497,0.023-2.756,1.027-3.156,2.471c-0.4,1.444,0.242,2.975,1.513,3.766c0.213,0.133,5.306,3.25,12.506,3.25
			c9.464,0,22.862-5.262,32.953-30.322l1.521-3.78c11.607-28.892,14.023-34.902,33.047-39.635c1.351-0.336,2.358-1.469,2.533-2.85
			C140.807,99.843,140.115,98.496,138.893,97.833z M98.787,141.193l-1.518,3.774c-6.874,17.071-16.104,26.095-26.692,26.095
			c-0.024,0-0.051,0-0.075,0c5.696-3.76,12.568-11.039,17.572-25.133c0.021-0.059,0.04-0.117,0.058-0.176
			c1.429-4.855,3.045-9.357,5.087-14.176c4.374-10.398,9.516-18.176,15.285-23.116c4.942-4.245,10.337-6.531,16.047-6.808
			C112.23,107.736,108.061,118.111,98.787,141.193z"/>
	</g>
</g>
<g>
	<g>
		<path d="M159.656,36.322c-2.941-2.045-5.423-3.691-7.611-5.144c-10.667-7.079-10.871-7.214-10.285-17.038
			c0.079-1.312-0.612-2.55-1.77-3.173c-1.156-0.623-2.569-0.518-3.623,0.27c-0.312,0.234-7.641,5.832-6.99,15
			c0.622,8.775,8.28,17.256,22.763,25.208c10.69,6.766,11.102,11.205,10.573,12.355c-0.529,1.15-0.147,2.797,0.996,3.802
			c1.429,1.257,3.588,0.419,4.246-0.07c0.236-0.176,5.799-4.394,5.682-11.649C173.532,49.274,168.829,42.693,159.656,36.322z
			 M155.655,45.68c-0.059-0.037-0.117-0.072-0.178-0.105c-15.39-8.43-19.022-15.395-19.361-19.753
			c-0.006-0.08-0.011-0.16-0.015-0.239c1.693,4.07,5.357,6.668,12.212,11.218c2.161,1.434,4.609,3.059,7.492,5.063
			c7.111,4.94,10.941,9.78,11.081,14.001C164.899,52.84,161.472,49.347,155.655,45.68z"/>
	</g>
</g>
<g>
	<g>
		<path d="M177.047,19.938C168.026,7.639,154.508,0,141.767,0c-6.157,0-11.87,1.802-16.523,5.213
			c-14.701,10.794-15.382,34.943-1.517,53.835c9.023,12.295,22.543,19.933,35.284,19.934h0.003c6.156,0,11.871-1.803,16.526-5.214
			c7.269-5.333,11.362-13.974,11.527-24.33C187.226,39.429,183.667,28.952,177.047,19.938z M171.55,68.324
			c-3.539,2.593-7.756,3.907-12.535,3.907h-0.002c-10.633-0.001-22.069-6.583-29.844-17.177
			c-11.663-15.891-11.633-35.809,0.067-44.399c3.486-2.555,7.819-3.905,12.531-3.905c10.632,0,22.065,6.583,29.838,17.183
			c5.756,7.835,8.851,16.855,8.714,25.399C180.188,57.525,177.072,64.271,171.55,68.324z"/>
	</g>
</g>
<g>
</g>
<g>
</g>
<g>
</g>
<g>
</g>
<g>
</g>
<g>
</g>
<g>
</g>
<g>
</g>
<g>
</g>
<g>
</g>
<g>
</g>
<g>
</g>
<g>
</g>
<g>
</g>
<g>
</g>
</svg>
