<svg id="Capa_1" enable-background="new 0 0 512.003 512.003" height="512" viewBox="0 0 512.003 512.003" width="512" xmlns="http://www.w3.org/2000/svg"><g><path d="m290.294 155.16c-2.876-3.855-7.285-6.066-12.095-6.066h-50.165c-7.419 0-13.681 5.312-14.89 12.63l-19.052 115.275c-.725 4.381.508 8.837 3.38 12.224 2.873 3.387 7.067 5.329 11.509 5.329h29.023l-9.814 81.566c-.738 6.141 2.875 11.696 8.788 13.509 1.268.389 2.543.576 3.794.576 4.586 0 8.833-2.515 11.057-6.836l64.6-125.49c2.429-4.717 2.229-10.237-.534-14.766s-7.579-7.233-12.884-7.233h-30.376l20.03-67.395c1.371-4.612.506-9.468-2.371-13.323zm-34.901 86.082c-.674 2.27-.237 4.724 1.178 6.622 1.416 1.897 3.645 3.015 6.012 3.015l40.469-.003c.024.017.06.074.043.136l-58.389 113.424 9.202-76.488c.256-2.13-.412-4.268-1.835-5.872-1.424-1.605-3.466-2.523-5.611-2.523h-37.48l-.09-.106 19.052-115.276c.008-.044.046-.076.091-.076l50.202.002.051.115z"/><path d="m127.328 63.073c-5.731 0-10.394-4.663-10.394-10.395 0-5.731 4.663-10.395 10.394-10.395h100.911c.014 0 .029.002.043.002.009 0 .017-.002.026-.002h51.944c4.143 0 7.5-3.358 7.5-7.5s-3.357-7.5-7.5-7.5h-50.576l-69.66-26.781c-3.867-1.488-8.206.443-9.691 4.309-1.487 3.866.442 8.206 4.309 9.692l33.244 12.781h-60.549c-14.003 0-25.394 11.392-25.394 25.395 0 7.829 3.563 14.839 9.15 19.501-5.649 5.638-9.15 13.429-9.15 22.021v58.058c0 4.142 3.357 7.5 7.5 7.5s7.5-3.358 7.5-7.5v-33.099h278.135v225.273c0 4.142 3.357 7.5 7.5 7.5s7.5-3.358 7.5-7.5v-250.232c0-8.593-3.5-16.383-9.15-22.021 5.587-4.662 9.15-11.672 9.15-19.501 0-14.002-11.392-25.395-25.395-25.395h-70.981c-4.143 0-7.5 3.358-7.5 7.5s3.357 7.5 7.5 7.5h70.981c5.731 0 10.395 4.663 10.395 10.395 0 5.731-4.663 10.395-10.395 10.395h-257.347zm-10.394 41.087v-9.959c0-8.893 7.235-16.128 16.128-16.128h245.879c8.893 0 16.128 7.235 16.128 16.128v9.959z"/><path d="m402.569 370.374c-4.143 0-7.5 3.358-7.5 7.5v42.253h-278.135v-234.428c0-4.142-3.357-7.5-7.5-7.5s-7.5 3.358-7.5 7.5v259.386c0 8.593 3.5 16.383 9.15 22.022-5.587 4.662-9.15 11.672-9.15 19.501 0 14.002 11.392 25.395 25.394 25.395h257.346c14.003 0 25.395-11.392 25.395-25.395 0-7.828-3.563-14.839-9.15-19.501 5.649-5.638 9.15-13.429 9.15-22.022v-67.212c0-4.141-3.358-7.499-7.5-7.499zm-7.5 64.753v9.959c0 8.893-7.235 16.128-16.128 16.128h-245.879c-8.892 0-16.128-7.235-16.128-16.128v-9.959zm-10.395 41.086c5.731 0 10.395 4.663 10.395 10.395 0 5.731-4.663 10.395-10.395 10.395h-257.346c-5.731 0-10.394-4.663-10.394-10.395 0-5.731 4.663-10.395 10.394-10.395z"/></g></svg>